<svg width="13" height="20" viewBox="0 0 13 20" fill="none" xmlns="http://www.w3.org/2000/svg">
<path d="M9.64439 7.00007C9.64439 8.7311 8.23256 10.1429 6.50153 10.1429C4.77051 10.1429 3.35868 8.7311 3.35868 7.00007C3.35868 5.26904 4.77051 3.85721 6.50153 3.85721C8.23256 3.85721 9.64439 5.26904 9.64439 7.00007ZM12.7872 7.00007C12.7872 3.52574 9.97587 0.714355 6.50153 0.714355C3.0272 0.714355 0.21582 3.52574 0.21582 7.00007C0.21582 7.74895 0.301758 8.52239 0.620954 9.19761L5.10198 18.6998C5.34752 19.24 5.91225 19.5715 6.50153 19.5715C7.09082 19.5715 7.65555 19.24 7.91337 18.6998L12.3821 9.19761C12.7013 8.52239 12.7872 7.74895 12.7872 7.00007Z" fill="white"/>
</svg>
