<svg width="22" height="18" viewBox="0 0 22 18" fill="none" xmlns="http://www.w3.org/2000/svg">
<path d="M20.4286 15.6071C20.4286 15.8158 20.2444 15.9999 20.0357 15.9999H1.96429C1.75558 15.9999 1.57143 15.8158 1.57143 15.6071V6.1785C1.82924 6.47314 2.11161 6.74323 2.41853 6.98877C4.17411 8.33922 5.94196 9.71422 7.64844 11.1383C8.5692 11.9118 9.71094 12.8571 10.9877 12.8571H11H11.0123C12.2891 12.8571 13.4308 11.9118 14.3516 11.1383C16.058 9.71422 17.8259 8.33922 19.5815 6.98877C19.8884 6.74323 20.1708 6.47314 20.4286 6.1785V15.6071ZM20.4286 2.70417C20.4286 3.7477 19.4219 5.11042 18.6239 5.73654C16.9788 7.0256 15.3337 8.32694 13.7009 9.62828C13.0502 10.1562 11.8717 11.2856 11.0123 11.2856H11H10.9877C10.1283 11.2856 8.94978 10.1562 8.29911 9.62828C6.6663 8.32694 5.02121 7.0256 3.37612 5.73654C2.27121 4.86488 1.57143 3.64948 1.57143 2.24993C1.57143 2.04123 1.75558 1.85707 1.96429 1.85707H20.0357C20.5022 1.85707 20.4286 2.39725 20.4286 2.70417ZM22 2.24993C22 1.16957 21.1161 0.285645 20.0357 0.285645H1.96429C0.883929 0.285645 0 1.16957 0 2.24993V15.6071C0 16.6874 0.883929 17.5714 1.96429 17.5714H20.0357C21.1161 17.5714 22 16.6874 22 15.6071V2.24993Z" fill="white"/>
</svg>
