<svg width="19" height="18" viewBox="0 0 19 18" fill="none" xmlns="http://www.w3.org/2000/svg">
<path d="M18.3725 14.3661C18.3725 14.2802 18.3725 14.1943 18.3347 14.1083C18.2466 13.8505 17.6296 13.5804 17.3778 13.4577C16.66 13.0648 15.9297 12.6842 15.2246 12.2791C14.8972 12.0827 14.4943 11.7144 14.1039 11.7144C13.3359 11.7144 12.2152 13.9365 11.5353 13.9365C11.1953 13.9365 10.7546 13.6295 10.4524 13.4577C8.16073 12.2177 6.57419 10.6708 5.30244 8.43645C5.12616 8.14181 4.81137 7.71212 4.81137 7.38065C4.81137 6.7177 7.09044 5.62507 7.09044 4.87619C7.09044 4.49561 6.71269 4.10275 6.51123 3.78355C6.09571 3.09605 5.70537 2.384 5.30244 1.68422C5.17652 1.43869 4.89951 0.837124 4.63508 0.751186C4.54694 0.714355 4.4588 0.714355 4.37066 0.714355C3.91736 0.714355 3.03595 0.910785 2.62043 1.09494C2.00344 1.35275 1.60051 2.04025 1.28573 2.5927C0.882795 3.31703 0.643555 4.05364 0.643555 4.87619C0.643555 6.01793 1.12203 7.04918 1.51237 8.0927C1.78939 8.84159 2.12936 9.56592 2.55747 10.2411C3.87959 12.3282 6.46086 14.8449 8.60143 16.134C9.29397 16.5514 10.0369 16.8829 10.805 17.153C11.8752 17.5336 12.9329 18.0001 14.1039 18.0001C14.9476 18.0001 15.7031 17.7668 16.446 17.374C17.0126 17.067 17.7177 16.6742 17.9822 16.0726C18.171 15.6675 18.3725 14.8081 18.3725 14.3661Z" fill="white"/>
</svg>
