<svg width="174" height="53" viewBox="0 0 174 53" fill="none" xmlns="http://www.w3.org/2000/svg">
<path d="M69.8783 37.1317V19.3073H62.9062V14.8906H83.1598V19.3073H76.1878V37.1317H69.8783Z" fill="#D1D1D1"/>
<path d="M85.6835 37.1317V43.0311H80.8252V32.8728L83.1282 32.7781C83.7907 32.0525 84.327 31.2323 84.7686 30.3174C85.1788 29.4025 85.5258 28.4246 85.7782 27.3519C86.0306 26.2793 86.2198 25.1436 86.346 23.9448C86.4722 22.746 86.5984 21.4525 86.6931 20.096L87.0716 14.8906H102.909V32.7781L105.275 32.8728V43.0311H100.385V37.1317H85.6835ZM92.277 21.0424C92.1508 22.4621 92.0246 23.7555 91.8984 24.8912C91.7722 26.0269 91.6145 27.0996 91.4252 28.046C91.2359 28.9924 90.9835 29.8442 90.6681 30.6329C90.3526 31.4216 89.9425 32.1156 89.4377 32.7781H96.6306V19.1496H92.4347L92.277 21.0424Z" fill="#D1D1D1"/>
<path d="M129.945 21.9257C129.945 22.8406 129.787 23.6924 129.472 24.5442C129.156 25.396 128.683 26.1531 128.052 26.8156C127.421 27.4781 126.632 28.0144 125.654 28.4246C124.677 28.8347 123.541 29.024 122.216 29.024H118.809V37.1001H112.436V14.8906H121.774C123.225 14.8906 124.487 15.0799 125.528 15.4269C126.569 15.774 127.421 16.2787 128.084 16.8781C128.746 17.5091 129.219 18.2347 129.503 19.0865C129.787 19.9698 129.945 20.9162 129.945 21.9257ZM118.809 19.2126V24.8597H120.891C121.616 24.8597 122.247 24.6388 122.752 24.2287C123.257 23.7871 123.509 23.093 123.509 22.115C123.509 21.074 123.257 20.3168 122.721 19.9067C122.184 19.465 121.522 19.2757 120.733 19.2757H118.809V19.2126Z" fill="#D1D1D1"/>
<path d="M146.318 25.5531C146.886 25.7109 147.359 25.9632 147.706 26.2156C148.085 26.4996 148.4 26.815 148.652 27.1305C148.905 27.4775 149.126 27.8246 149.283 28.2347C149.441 28.6448 149.599 29.0549 149.725 29.465L151.839 37.0995H145.403L143.573 30.4746C143.321 29.5597 142.942 28.8656 142.406 28.4555C141.87 28.0138 141.113 27.8246 140.166 27.8246H138.116V37.1311H131.869V14.9531H138.116V23.3132H139.977C140.324 23.3132 140.671 23.2817 140.986 23.2186C141.333 23.1555 141.617 23.0293 141.933 22.84C142.217 22.6507 142.501 22.3668 142.722 22.0198C142.942 21.6728 143.163 21.1996 143.289 20.6632L144.804 15.0162H150.987L149.22 21.6097C148.968 22.4299 148.621 23.1871 148.116 23.8811C147.611 24.5751 147.012 25.0799 146.286 25.3954V25.5531H146.318Z" fill="#D1D1D1"/>
<path d="M163.291 27.1938L165.089 22.0516L167.771 14.8902H173.985L166.099 33.9765C165.531 35.3646 164.805 36.3111 163.89 36.8789C162.975 37.4468 161.871 37.7307 160.578 37.7307C159.884 37.7307 159.127 37.6676 158.306 37.573C157.486 37.4783 156.54 37.289 155.499 36.9736L156.35 32.967C157.044 33.0932 157.581 33.1879 157.991 33.2194C158.401 33.251 158.748 33.2825 159.032 33.2825C159.41 33.2825 159.694 33.2194 159.947 33.0932C160.168 32.967 160.388 32.6831 160.546 32.2414L160.988 31.1057H159.631L152.186 14.8271H158.496L161.272 21.9885L163.07 27.1307H163.291V27.1938Z" fill="#D1D1D1"/>
<path d="M38.9613 41.3593C35.5542 44.3563 31.1059 46.1545 26.2161 46.1545C15.553 46.1545 6.84583 37.479 6.84583 26.7843C6.84583 21.1373 9.275 16.0581 13.1238 12.5248C12.0196 10.5057 10.7893 8.54979 9.43274 6.68848C3.65952 11.5153 0 18.7397 0 26.8159C0 41.2647 11.7357 53.0004 26.1845 53.0004C35.2702 53.0004 43.2518 48.3944 47.9524 41.3593H38.9613Z" fill="#D1D1D1"/>
<path d="M55.8392 30.4119C53.9464 19.2125 46.8797 8.86488 40.791 0H32.7148C39.9708 8.42321 44.8922 18.8655 47.0059 30.4119H55.8392Z" fill="#D1D1D1"/>
<path d="M43.1569 30.4119C41.2641 19.2125 34.1974 8.86488 28.0772 0H20.001C27.2569 8.42321 32.1784 18.8655 34.292 30.4119H43.1569Z" fill="#D1D1D1"/>
<path d="M30.6013 30.4119C28.6769 19.2125 21.6417 8.86488 15.5215 0H7.44531C14.7013 8.42321 19.6227 18.8655 21.7364 30.4119H30.6013Z" fill="#D1D1D1"/>
<path d="M46.9743 30.4121L42.7153 38.7091H49.1826L55.8391 30.4121H46.9743Z" fill="#D1D1D1"/>
<path d="M34.2916 30.4121L30.0327 38.7091H36.5L43.1565 30.4121H34.2916Z" fill="#D1D1D1"/>
<path d="M21.736 30.4121L17.4771 38.7091H23.9443L30.6009 30.4121H21.736Z" fill="#D1D1D1"/>
</svg>
