<svg width="500" height="153" viewBox="0 0 500 153" fill="none" xmlns="http://www.w3.org/2000/svg">
<path d="M200.817 106.708V55.4841H180.78V42.7915H238.985V55.4841H218.949V106.708H200.817Z" fill="white"/>
<path d="M246.238 106.708V123.662H232.276V94.4687L238.894 94.1967C240.798 92.1115 242.339 89.7543 243.608 87.1251C244.787 84.4959 245.784 81.6854 246.51 78.6029C247.235 75.5204 247.779 72.2566 248.141 68.8114C248.504 65.3663 248.867 61.6491 249.139 57.7507L250.227 42.7915H295.739V94.1967L302.538 94.4687V123.662H288.486V106.708H246.238V106.708ZM265.186 60.4705C264.823 64.5503 264.461 68.2674 264.098 71.5313C263.735 74.7951 263.282 77.8776 262.738 80.5974C262.194 83.3173 261.469 85.7652 260.562 88.0317C259.655 90.2982 258.477 92.2928 257.026 94.1967H277.697V55.0308H265.639L265.186 60.4705Z" fill="white"/>
<path d="M373.436 63.0091C373.436 65.6383 372.983 68.0861 372.076 70.534C371.17 72.9818 369.81 75.1577 367.997 77.0616C366.183 78.9655 363.917 80.5068 361.106 81.6854C358.296 82.864 355.032 83.4079 351.224 83.4079H341.433V106.617H323.119V42.7915H349.955C354.125 42.7915 357.752 43.3355 360.744 44.3328C363.736 45.33 366.183 46.7806 368.087 48.5032C369.991 50.3164 371.351 52.4016 372.167 54.8495C372.983 57.388 373.436 60.1079 373.436 63.0091ZM341.433 55.2122V71.4406H347.416C349.502 71.4406 351.315 70.806 352.765 69.6274C354.216 68.3581 354.941 66.3635 354.941 63.553C354.941 60.5612 354.216 58.3853 352.675 57.2067C351.134 55.9375 349.23 55.3935 346.963 55.3935H341.433V55.2122Z" fill="white"/>
<path d="M420.489 73.435C422.121 73.8883 423.481 74.6136 424.478 75.3389C425.566 76.1548 426.473 77.0615 427.198 77.9681C427.924 78.9654 428.558 79.9626 429.012 81.1412C429.465 82.3198 429.918 83.4984 430.281 84.677L436.355 106.617H417.86L412.602 87.5782C411.877 84.949 410.789 82.9545 409.247 81.7759C407.706 80.5066 405.53 79.9626 402.81 79.9626H396.917V106.708H378.966V42.9727H396.917V66.998H402.266C403.264 66.998 404.261 66.9073 405.168 66.726C406.165 66.5447 406.981 66.1821 407.887 65.6381C408.703 65.0941 409.519 64.2782 410.154 63.2809C410.789 62.2836 411.423 60.9237 411.786 59.3824L416.138 43.154H433.907L428.83 62.1023C428.105 64.4595 427.108 66.6354 425.657 68.6299C424.206 70.6245 422.484 72.0751 420.399 72.9817V73.435H420.489Z" fill="white"/>
<path d="M469.266 78.1502L474.434 63.3724L482.14 42.7922H500L477.335 97.6425C475.703 101.632 473.618 104.351 470.988 105.983C468.359 107.615 465.186 108.431 461.469 108.431C459.474 108.431 457.299 108.25 454.941 107.978C452.584 107.706 449.864 107.162 446.873 106.255L449.32 94.7413C451.315 95.104 452.856 95.3759 454.035 95.4666C455.213 95.5573 456.211 95.6479 457.027 95.6479C458.115 95.6479 458.93 95.4666 459.656 95.104C460.29 94.7413 460.925 93.9254 461.378 92.6561L462.648 89.3923H458.749L437.353 42.6108H455.485L463.464 63.191L468.631 77.9689H469.266V78.1502Z" fill="white"/>
<path d="M111.967 118.857C102.176 127.47 89.3924 132.638 75.3399 132.638C44.6962 132.638 19.6736 107.706 19.6736 76.9717C19.6736 60.7433 26.6545 46.1467 37.7153 35.9926C34.5421 30.1903 31.0063 24.5693 27.1078 19.2202C10.5168 33.0915 0 53.853 0 77.0624C0 118.585 33.7262 152.312 75.2492 152.312C101.36 152.312 124.297 139.075 137.806 118.857H111.967Z" fill="white"/>
<path d="M160.471 87.3979C155.031 55.213 134.723 25.4759 117.226 0H94.0161C114.868 24.2067 129.012 54.2157 135.086 87.3979H160.471Z" fill="url(#paint0_linear_567_5)"/>
<path d="M124.024 87.3979C118.585 55.213 98.2765 25.4759 80.6882 0H57.4788C78.3309 24.2067 92.4742 54.2157 98.5485 87.3979H124.024Z" fill="url(#paint1_linear_567_5)"/>
<path d="M87.9422 87.3979C82.4118 55.213 62.1942 25.4759 44.6059 0H21.3965C42.2487 24.2067 56.3919 54.2157 62.4662 87.3979H87.9422V87.3979Z" fill="url(#paint2_linear_567_5)"/>
<path d="M134.995 87.3984L122.756 111.242H141.342L160.471 87.3984H134.995Z" fill="url(#paint3_linear_567_5)"/>
<path d="M98.5477 87.3984L86.3083 111.242H104.894L124.024 87.3984H98.5477Z" fill="url(#paint4_linear_567_5)"/>
<path d="M62.4652 87.3984L50.2258 111.242H68.8115L87.9411 87.3984H62.4652Z" fill="url(#paint5_linear_567_5)"/>
<defs>
<linearGradient id="paint0_linear_567_5" x1="93.9263" y1="43.6691" x2="160.452" y2="43.6691" gradientUnits="userSpaceOnUse">
<stop offset="0.4134" stop-color="#EC6517"/>
<stop offset="0.5401" stop-color="#ED6918"/>
<stop offset="0.6635" stop-color="#EE741B"/>
<stop offset="0.7856" stop-color="#F18521"/>
<stop offset="0.9062" stop-color="#F59C28"/>
<stop offset="1" stop-color="#F9B231"/>
</linearGradient>
<linearGradient id="paint1_linear_567_5" x1="57.4898" y1="43.6691" x2="124.014" y2="43.6691" gradientUnits="userSpaceOnUse">
<stop offset="0.4134" stop-color="#EC6517"/>
<stop offset="0.5401" stop-color="#ED6918"/>
<stop offset="0.6635" stop-color="#EE741B"/>
<stop offset="0.7856" stop-color="#F18521"/>
<stop offset="0.9062" stop-color="#F59C28"/>
<stop offset="1" stop-color="#F9B231"/>
</linearGradient>
<linearGradient id="paint2_linear_567_5" x1="21.3945" y1="43.6691" x2="87.9187" y2="43.6691" gradientUnits="userSpaceOnUse">
<stop offset="0.4134" stop-color="#EC6517"/>
<stop offset="0.5401" stop-color="#ED6918"/>
<stop offset="0.6635" stop-color="#EE741B"/>
<stop offset="0.7856" stop-color="#F18521"/>
<stop offset="0.9062" stop-color="#F59C28"/>
<stop offset="1" stop-color="#F9B231"/>
</linearGradient>
<linearGradient id="paint3_linear_567_5" x1="141.615" y1="111.252" x2="141.615" y2="87.3699" gradientUnits="userSpaceOnUse">
<stop stop-color="#EC6517"/>
<stop offset="0.5092" stop-color="#EC6317"/>
<stop offset="0.7704" stop-color="#EB5C17"/>
<stop offset="0.9751" stop-color="#E94E16"/>
<stop offset="1" stop-color="#E94C16"/>
</linearGradient>
<linearGradient id="paint4_linear_567_5" x1="105.177" y1="111.252" x2="105.177" y2="87.3699" gradientUnits="userSpaceOnUse">
<stop stop-color="#EC6517"/>
<stop offset="0.5092" stop-color="#EC6317"/>
<stop offset="0.7704" stop-color="#EB5C17"/>
<stop offset="0.9751" stop-color="#E94E16"/>
<stop offset="1" stop-color="#E94C16"/>
</linearGradient>
<linearGradient id="paint5_linear_567_5" x1="69.0815" y1="111.252" x2="69.0815" y2="87.3699" gradientUnits="userSpaceOnUse">
<stop stop-color="#EC6517"/>
<stop offset="0.5092" stop-color="#EC6317"/>
<stop offset="0.7704" stop-color="#EB5C17"/>
<stop offset="0.9751" stop-color="#E94E16"/>
<stop offset="1" stop-color="#E94C16"/>
</linearGradient>
</defs>
</svg>
