<svg width="174" height="53" viewBox="0 0 174 53" fill="none" xmlns="http://www.w3.org/2000/svg">
<path d="M69.8783 37.1314V19.307H62.9062V14.8904H83.1598V19.307H76.1878V37.1314H69.8783Z" fill="white"/>
<path d="M85.6835 37.1314V43.0309H80.8252V32.8725L83.1282 32.7779C83.7907 32.0523 84.327 31.232 84.7686 30.3172C85.1788 29.4023 85.5258 28.4243 85.7782 27.3517C86.0306 26.2791 86.2198 25.1434 86.346 23.9445C86.4722 22.7457 86.5984 21.4523 86.6931 20.0957L87.0716 14.8904H102.909V32.7779L105.275 32.8725V43.0309H100.385V37.1314H85.6835ZM92.277 21.0422C92.1508 22.4618 92.0246 23.7553 91.8984 24.891C91.7722 26.0267 91.6145 27.0993 91.4252 28.0457C91.2359 28.9922 90.9835 29.8439 90.6681 30.6326C90.3526 31.4213 89.9425 32.1154 89.4377 32.7779H96.6306V19.1493H92.4347L92.277 21.0422Z" fill="white"/>
<path d="M129.945 21.9255C129.945 22.8404 129.787 23.6922 129.472 24.544C129.156 25.3957 128.683 26.1529 128.052 26.8154C127.421 27.4779 126.632 28.0142 125.654 28.4243C124.677 28.8344 123.541 29.0237 122.216 29.0237H118.809V37.0999H112.436V14.8904H121.774C123.225 14.8904 124.487 15.0797 125.528 15.4267C126.569 15.7737 127.421 16.2785 128.084 16.8779C128.746 17.5088 129.219 18.2344 129.503 19.0862C129.787 19.9695 129.945 20.916 129.945 21.9255ZM118.809 19.2124V24.8594H120.891C121.616 24.8594 122.247 24.6386 122.752 24.2285C123.257 23.7868 123.509 23.0928 123.509 22.1148C123.509 21.0737 123.257 20.3166 122.721 19.9065C122.184 19.4648 121.522 19.2755 120.733 19.2755H118.809V19.2124Z" fill="white"/>
<path d="M146.318 25.5536C146.886 25.7113 147.359 25.9637 147.706 26.2161C148.085 26.5 148.4 26.8155 148.652 27.131C148.905 27.478 149.126 27.825 149.283 28.2352C149.441 28.6453 149.599 29.0554 149.725 29.4655L151.839 37.1H145.403L143.573 30.475C143.321 29.5602 142.942 28.8661 142.406 28.456C141.87 28.0143 141.113 27.825 140.166 27.825H138.116V37.1316H131.869V14.9536H138.116V23.3137H139.977C140.324 23.3137 140.671 23.2822 140.986 23.2191C141.333 23.156 141.617 23.0298 141.933 22.8405C142.217 22.6512 142.501 22.3673 142.722 22.0203C142.942 21.6733 143.163 21.2 143.289 20.6637L144.804 15.0167H150.987L149.22 21.6102C148.968 22.4304 148.621 23.1875 148.116 23.8816C147.611 24.5756 147.012 25.0804 146.286 25.3959V25.5536H146.318Z" fill="white"/>
<path d="M163.291 27.1941L165.089 22.0518L167.771 14.8905H173.985L166.099 33.9768C165.531 35.3649 164.805 36.3113 163.89 36.8792C162.975 37.447 161.871 37.731 160.578 37.731C159.884 37.731 159.127 37.6679 158.306 37.5732C157.486 37.4786 156.54 37.2893 155.499 36.9738L156.35 32.9673C157.044 33.0935 157.581 33.1881 157.991 33.2196C158.401 33.2512 158.748 33.2827 159.032 33.2827C159.41 33.2827 159.694 33.2197 159.947 33.0935C160.168 32.9673 160.388 32.6833 160.546 32.2417L160.988 31.106H159.631L152.186 14.8274H158.496L161.272 21.9887L163.07 27.131H163.291V27.1941Z" fill="white"/>
<path d="M38.9613 41.3588C35.5542 44.3558 31.1059 46.1541 26.2161 46.1541C15.553 46.1541 6.84583 37.4785 6.84583 26.7838C6.84583 21.1368 9.275 16.0576 13.1238 12.5243C12.0196 10.5052 10.7893 8.5493 9.43274 6.68799C3.65952 11.5148 0 18.7392 0 26.8154C0 41.2642 11.7357 52.9999 26.1845 52.9999C35.2702 52.9999 43.2518 48.3939 47.9524 41.3588H38.9613Z" fill="white"/>
<path d="M55.8392 30.4119C53.9464 19.2125 46.8797 8.86488 40.791 0H32.7148C39.9708 8.42321 44.8922 18.8655 47.0059 30.4119H55.8392Z" fill="url(#paint0_linear_503_22)"/>
<path d="M43.1569 30.4119C41.2641 19.2125 34.1974 8.86488 28.0772 0H20.001C27.2569 8.42321 32.1784 18.8655 34.292 30.4119H43.1569Z" fill="url(#paint1_linear_503_22)"/>
<path d="M30.6013 30.4119C28.6769 19.2125 21.6417 8.86488 15.5215 0H7.44531C14.7013 8.42321 19.6227 18.8655 21.7364 30.4119H30.6013Z" fill="url(#paint2_linear_503_22)"/>
<path d="M46.9743 30.4119L42.7153 38.7089H49.1826L55.8391 30.4119H46.9743Z" fill="url(#paint3_linear_503_22)"/>
<path d="M34.2916 30.4119L30.0327 38.7089H36.5L43.1565 30.4119H34.2916Z" fill="url(#paint4_linear_503_22)"/>
<path d="M21.736 30.4119L17.4771 38.7089H23.9443L30.6009 30.4119H21.736Z" fill="url(#paint5_linear_503_22)"/>
<defs>
<linearGradient id="paint0_linear_503_22" x1="32.6836" y1="15.1956" x2="55.8326" y2="15.1956" gradientUnits="userSpaceOnUse">
<stop offset="0.4134" stop-color="#EC6517"/>
<stop offset="0.5401" stop-color="#ED6918"/>
<stop offset="0.6635" stop-color="#EE741B"/>
<stop offset="0.7856" stop-color="#F18521"/>
<stop offset="0.9062" stop-color="#F59C28"/>
<stop offset="1" stop-color="#F9B231"/>
</linearGradient>
<linearGradient id="paint1_linear_503_22" x1="20.0048" y1="15.1956" x2="43.1533" y2="15.1956" gradientUnits="userSpaceOnUse">
<stop offset="0.4134" stop-color="#EC6517"/>
<stop offset="0.5401" stop-color="#ED6918"/>
<stop offset="0.6635" stop-color="#EE741B"/>
<stop offset="0.7856" stop-color="#F18521"/>
<stop offset="0.9062" stop-color="#F59C28"/>
<stop offset="1" stop-color="#F9B231"/>
</linearGradient>
<linearGradient id="paint2_linear_503_22" x1="7.44462" y1="15.1956" x2="30.5931" y2="15.1956" gradientUnits="userSpaceOnUse">
<stop offset="0.4134" stop-color="#EC6517"/>
<stop offset="0.5401" stop-color="#ED6918"/>
<stop offset="0.6635" stop-color="#EE741B"/>
<stop offset="0.7856" stop-color="#F18521"/>
<stop offset="0.9062" stop-color="#F59C28"/>
<stop offset="1" stop-color="#F9B231"/>
</linearGradient>
<linearGradient id="paint3_linear_503_22" x1="49.2778" y1="38.7122" x2="49.2778" y2="30.4019" gradientUnits="userSpaceOnUse">
<stop stop-color="#EC6517"/>
<stop offset="0.5092" stop-color="#EC6317"/>
<stop offset="0.7704" stop-color="#EB5C17"/>
<stop offset="0.9751" stop-color="#E94E16"/>
<stop offset="1" stop-color="#E94C16"/>
</linearGradient>
<linearGradient id="paint4_linear_503_22" x1="36.5985" y1="38.7122" x2="36.5985" y2="30.4019" gradientUnits="userSpaceOnUse">
<stop stop-color="#EC6517"/>
<stop offset="0.5092" stop-color="#EC6317"/>
<stop offset="0.7704" stop-color="#EB5C17"/>
<stop offset="0.9751" stop-color="#E94E16"/>
<stop offset="1" stop-color="#E94C16"/>
</linearGradient>
<linearGradient id="paint5_linear_503_22" x1="24.0383" y1="38.7123" x2="24.0383" y2="30.4019" gradientUnits="userSpaceOnUse">
<stop stop-color="#EC6517"/>
<stop offset="0.5092" stop-color="#EC6317"/>
<stop offset="0.7704" stop-color="#EB5C17"/>
<stop offset="0.9751" stop-color="#E94E16"/>
<stop offset="1" stop-color="#E94C16"/>
</linearGradient>
</defs>
</svg>
