<svg version="1.1" xmlns="http://www.w3.org/2000/svg" xmlns:xlink="http://www.w3.org/1999/xlink">
    <!-- vk -->
    <symbol viewBox="0 0 21 12" id="vk">
        <path d="M20.9704 0.867782C20.9704 0.867782 20.8173 0.429757 19.8661 0.550214L16.7172 0.572116C16.4767 0.539264 16.3018 0.637819 16.3018 0.637819C16.3018 0.637819 16.1159 0.736375 16.0284 0.977288C15.5145 2.30232 14.8585 3.44118 14.8585 3.44118C13.459 5.82842 12.8905 5.95983 12.6609 5.80652C12.1251 5.46705 12.2672 4.42674 12.2672 3.6821C12.2672 1.36056 12.6171 0.396905 11.5784 0.14504C11.2395 0.0683853 10.988 0.0136324 10.1024 0.00268205C8.97622 -0.00826943 8.02499 0.00268212 7.48924 0.265498C7.12844 0.440707 6.85509 0.83493 7.0191 0.856832C7.22684 0.889684 7.69698 0.988239 7.94846 1.32771C7.94846 1.32771 8.2218 1.77669 8.26553 2.76224C8.3858 5.48895 7.82819 5.82842 7.82819 5.82842C7.40178 6.05839 6.65829 5.67511 5.56493 3.41928C5.56493 3.41928 4.93078 2.30232 4.43876 1.07585C4.35129 0.845882 4.17635 0.725425 4.17635 0.725425C4.17635 0.725425 3.97955 0.572116 3.69527 0.528312L0.699459 0.550214C0.240246 0.550214 0.0762418 0.758276 0.0762418 0.758276C0.0762418 0.758276 -0.0877628 0.933487 0.0653081 1.29486C2.40511 6.80303 5.07291 9.56259 5.07291 9.56259C5.07291 9.56259 7.51111 12.1141 10.2773 11.9389H11.5347C11.9174 11.906 12.1142 11.698 12.1142 11.698C12.1142 11.698 12.2891 11.5009 12.2782 11.1395C12.2563 9.45309 13.0435 9.20122 13.0435 9.20122C13.8089 8.96031 14.7929 10.8329 15.8425 11.5556C15.8425 11.5556 16.6407 12.1031 17.242 11.9827L20.0411 11.9389C21.5171 11.9279 20.8173 10.7015 20.8173 10.7015C20.7627 10.6029 20.4128 9.84731 18.729 8.28137C16.9796 6.64972 17.2092 6.91254 19.3304 4.08727C20.6205 2.36802 21.1344 1.31676 20.9704 0.867782Z" />
    </symbol>

    <!-- pinterest -->
    <symbol viewBox="0 0 13 17" id="pint">
        <path d="M0 6.09916C0 7.4375 0.528125 9.38882 1.98047 9.82812C2.03125 9.83834 2.10234 9.85877 2.15312 9.85877C2.48828 9.85877 2.68125 8.91887 2.68125 8.65324C2.68125 8.33654 1.87891 7.66226 1.87891 6.34435C1.87891 3.60637 3.95078 1.66526 6.63203 1.66526C8.9375 1.66526 10.6438 2.98317 10.6438 5.40445C10.6438 7.21274 9.92266 10.6046 7.58672 10.6046C6.74375 10.6046 6.02266 9.99159 6.02266 9.11298C6.02266 7.82572 6.91641 6.57933 6.91641 5.2512C6.91641 4.44411 6.45937 3.79027 5.60625 3.79027C4.44844 3.79027 3.7375 5.09796 3.7375 6.12981C3.7375 6.70192 3.80859 7.33534 4.0625 7.85637C3.59531 9.87921 2.64062 12.893 2.64062 14.9772C2.64062 15.6208 2.73203 16.2542 2.79297 16.8978L2.88437 17L3.02656 16.9489C4.73281 14.5992 4.67188 14.1394 5.44375 11.0643C5.86016 11.8612 6.93672 12.2903 7.78984 12.2903C11.3852 12.2903 13 8.76562 13 5.58834C13 2.20673 10.0953 0 6.90625 0C3.43281 0 0 2.32933 0 6.09916Z" />
    </symbol>

    <!-- insta -->
    <symbol viewBox="0 0 18 18" id="insta">
        <path fill-rule="evenodd" clip-rule="evenodd" d="M9 1.61511C10.1984 1.57016 11.3985 1.60353 12.5925 1.71502C13.1717 1.70791 13.7471 1.80959 14.2889 2.01477C15.0362 2.36307 15.6369 2.96371 15.9852 3.71108C16.1904 4.25278 16.2921 4.82818 16.285 5.4074C16.285 6.30551 16.3849 6.60526 16.3849 8.99985C16.4298 10.1982 16.3964 11.3983 16.285 12.5923C16.2921 13.1715 16.1904 13.7469 15.9852 14.2886C15.6369 15.036 15.0362 15.6366 14.2889 15.9849C13.7471 16.1901 13.1717 16.2918 12.5925 16.2847C11.6944 16.2847 11.3946 16.3846 9 16.3846C7.8016 16.4296 6.60154 16.3962 5.40748 16.2847C4.82826 16.2918 4.25285 16.1901 3.71114 15.9849C2.96376 15.6366 2.36311 15.036 2.0148 14.2886C1.80962 13.7469 1.70794 13.1715 1.71505 12.5923C1.71505 11.6942 1.61513 11.3945 1.61513 8.99985C1.57018 7.80147 1.60356 6.60143 1.71505 5.4074C1.70794 4.82818 1.80962 4.25278 2.0148 3.71108C2.18891 3.34099 2.42508 3.00344 2.7131 2.71305C2.94699 2.36391 3.30298 2.11484 3.71114 2.01477C4.25285 1.80959 4.82826 1.70791 5.40748 1.71502C6.60154 1.60353 7.8016 1.57016 9 1.61511ZM9 0.0187083C7.76831 -0.0251884 6.53508 0.00818215 5.30757 0.118624C4.55781 0.116821 3.81402 0.251881 3.11276 0.517162C2.50722 0.714729 1.95917 1.05735 1.51634 1.51519C1.05793 1.95821 0.714899 2.50666 0.51717 3.11271C0.204133 3.79986 0.0671631 4.55415 0.118625 5.30748C0.00818228 6.53497 -0.0251888 7.76818 0.0187086 8.99985C-0.0251888 10.2315 0.00818228 11.4647 0.118625 12.6922C0.117045 13.4424 0.25249 14.1866 0.518293 14.8881C0.715863 15.4937 1.05849 16.0417 1.51634 16.4845C1.95917 16.9424 2.50722 17.285 3.11276 17.4825C3.8143 17.7483 4.55849 17.8838 5.30869 17.8822C6.53585 17.9922 7.76871 18.0252 9 17.981C10.2317 18.0249 11.4649 17.9915 12.6924 17.8811C13.4426 17.8827 14.1868 17.7472 14.8884 17.4814C15.4894 17.2744 16.0354 16.9331 16.485 16.4836C16.9345 16.0341 17.2758 15.4881 17.4828 14.887C17.7486 14.1855 17.8841 13.4413 17.8825 12.6911C17.8814 11.6942 17.9813 11.3945 17.9813 8.99985C18.0252 7.76818 17.9918 6.53497 17.8814 5.30748C17.883 4.55729 17.7475 3.81312 17.4817 3.11159C17.2841 2.50606 16.9415 1.95801 16.4837 1.51519C16.0408 1.05735 15.4928 0.714729 14.8872 0.517162C14.186 0.251881 13.4422 0.116821 12.6924 0.118624C11.4649 0.00818215 10.2317 -0.0251884 9 0.0187083ZM9 4.40937C8.3944 4.39935 7.79296 4.51124 7.23148 4.73838C6.67 4.96553 6.15995 5.30329 5.73166 5.73157C5.30338 6.15985 4.96561 6.66989 4.73846 7.23137C4.51131 7.79284 4.39942 8.39426 4.40944 8.99985C4.40944 9.90777 4.67867 10.7953 5.18309 11.5502C5.6875 12.3051 6.40445 12.8935 7.24327 13.2409C8.08208 13.5884 9.00509 13.6793 9.89558 13.5021C10.7861 13.325 11.604 12.8878 12.246 12.2458C12.888 11.6038 13.3252 10.7859 13.5024 9.89541C13.6795 9.00495 13.5886 8.08195 13.2411 7.24315C12.8937 6.40435 12.3053 5.68741 11.5504 5.183C10.7955 4.67859 9.90793 4.40937 9 4.40937ZM9 11.9939C8.60479 12.0013 8.21217 11.9288 7.8456 11.7809C7.47903 11.633 7.14604 11.4128 6.86654 11.1333C6.58704 10.8538 6.36676 10.5208 6.21888 10.1542C6.071 9.78767 5.99855 9.39505 6.00586 8.99985C5.99855 8.60465 6.071 8.21204 6.21888 7.84547C6.36676 7.47891 6.58704 7.14592 6.86654 6.86643C7.14604 6.58693 7.47903 6.36666 7.8456 6.21878C8.21217 6.0709 8.60479 5.99845 9 6.00576C9.39521 5.99845 9.78783 6.0709 10.1544 6.21878C10.521 6.36666 10.854 6.58693 11.1335 6.86643C11.413 7.14592 11.6332 7.47891 11.7811 7.84547C11.929 8.21204 12.0015 8.60465 11.9941 8.99985C12.0015 9.39505 11.929 9.78767 11.7811 10.1542C11.6332 10.5208 11.413 10.8538 11.1335 11.1333C10.854 11.4128 10.521 11.633 10.1544 11.7809C9.78783 11.9288 9.39521 12.0013 9 11.9939ZM13.7904 3.11271C13.5732 3.11271 13.361 3.17711 13.1804 3.29775C12.9998 3.41839 12.8591 3.58987 12.776 3.79049C12.6929 3.99112 12.6712 4.21188 12.7135 4.42486C12.7559 4.63784 12.8605 4.83347 13.014 4.98702C13.1676 5.14057 13.3632 5.24514 13.5762 5.28751C13.7892 5.32987 14.0099 5.30813 14.2106 5.22503C14.4112 5.14193 14.5827 5.0012 14.7033 4.82064C14.824 4.64009 14.8884 4.42781 14.8884 4.21066C14.886 3.92019 14.7696 3.64229 14.5642 3.43689C14.3588 3.23149 14.0809 3.11506 13.7904 3.11271Z" />
    </symbol>

    <!-- twitter -->
    <symbol viewBox="0 0 18 15" id="twitter">
        <path fill-rule="evenodd" clip-rule="evenodd" d="M5.70038 14.9987C7.08277 15.0115 8.45379 14.7412 9.73337 14.2036C11.0129 13.666 12.1754 12.8719 13.1529 11.8677C14.1304 10.8634 14.9033 9.66912 15.4265 8.35457C15.9496 7.04003 16.2126 5.63158 16.2 4.21147V3.69834C16.8987 3.15185 17.5066 2.49265 18 1.74638C17.3293 2.04585 16.6231 2.25297 15.8996 2.36236C16.6434 1.88256 17.2072 1.15835 17.4994 0.307543C16.7769 0.720798 16.0034 1.0318 15.1999 1.2321C14.8614 0.840785 14.4454 0.528396 13.9797 0.315908C13.514 0.103419 13.0094 -0.00425073 12.4999 0.000128415C11.5232 0.0153358 10.5906 0.420687 9.89987 1.13026C9.20914 1.83983 8.81455 2.79783 8.79975 3.8012C8.77704 4.07927 8.81114 4.35915 8.89987 4.6229C7.42823 4.54994 5.98876 4.1547 4.67793 3.46366C3.3671 2.77262 2.21518 1.80176 1.29937 0.616112C0.970275 1.21099 0.798095 1.88384 0.799873 2.56808C0.813072 3.18902 0.964033 3.79868 1.24126 4.35064C1.51848 4.90259 1.91466 5.38227 2.39962 5.75316C1.79863 5.74069 1.21178 5.56354 0.699752 5.24004C0.698815 6.11992 0.998703 6.9722 1.54707 7.64811C2.09544 8.32402 2.85746 8.78064 3.70013 8.93825C3.37448 9.02852 3.03661 9.06327 2.7 9.04111C2.46232 9.0575 2.22392 9.02246 2.00025 8.93825C2.24475 9.69957 2.71218 10.3647 3.33863 10.8428C3.96509 11.3208 4.71999 11.5885 5.50012 11.6091C4.18557 12.6638 2.56799 13.2417 0.899999 13.2525C0.596537 13.2691 0.292472 13.2344 0 13.1496C1.65493 14.3841 3.65542 15.0331 5.70038 14.9987Z" />
    </symbol>

    <!-- face -->
    <symbol viewBox="0 0 10 18" id="face">
        <path fill-rule="evenodd" clip-rule="evenodd" d="M6.48952 18V9.80373H9.46858L9.89467 6.60573H6.48952V4.60642C6.48952 3.70684 6.8091 3.00742 8.1915 3.00742H10V0.108531C9.5751 0.108531 8.51107 0.0084529 7.34052 0.0084529C6.7484 -0.0284315 6.1548 0.0556884 5.6006 0.25502C5.04641 0.454352 4.54478 0.764159 4.13026 1.16311C3.71574 1.56206 3.39819 2.04067 3.19945 2.566C3.00071 3.09132 2.92552 3.65086 2.97905 4.20611V6.60573H0V9.80373H2.97905V18H6.48952Z" />
    </symbol>




    <!-- Иконка стрелка влево -->
    <symbol viewBox="0 0 15 26" id="icon-arrow-left">
        <path d="M14 25L2 13L14 0.999999"/>
    </symbol>

    <!-- Иконка стрелка вправо -->
    <symbol viewBox="0 0 15 26" id="icon-arrow-right">
        <path d="M1 1L13 13L1 25"/>
    </symbol>


    <!-- Иконка длинная стрелка вправо -->
    <path viewBox="0 0 61 16" id="long-arrow-right" d="M1 8H59.5M59.5 8L52.5 1M59.5 8L52.5 15" stroke-width="1.5" stroke-linecap="round" stroke-linejoin="round"/>

    <!-- Location -->
    <symbol viewBox="0 0 13 20" id="icon-loc">
        <path d="M9.64439 7.00007C9.64439 8.7311 8.23256 10.1429 6.50153 10.1429C4.77051 10.1429 3.35868 8.7311 3.35868 7.00007C3.35868 5.26904 4.77051 3.85721 6.50153 3.85721C8.23256 3.85721 9.64439 5.26904 9.64439 7.00007ZM12.7872 7.00007C12.7872 3.52574 9.97587 0.714355 6.50153 0.714355C3.0272 0.714355 0.21582 3.52574 0.21582 7.00007C0.21582 7.74895 0.301758 8.52239 0.620954 9.19761L5.10198 18.6998C5.34752 19.24 5.91225 19.5715 6.50153 19.5715C7.09082 19.5715 7.65555 19.24 7.91337 18.6998L12.3821 9.19761C12.7013 8.52239 12.7872 7.74895 12.7872 7.00007Z"/>
    </symbol>

    <!-- Phone -->
    <symbol viewBox="0 0 19 18" id="icon-phone">
        <path d="M18.3725 14.3661C18.3725 14.2802 18.3725 14.1943 18.3347 14.1083C18.2466 13.8505 17.6296 13.5804 17.3778 13.4577C16.66 13.0648 15.9297 12.6842 15.2246 12.2791C14.8972 12.0827 14.4943 11.7144 14.1039 11.7144C13.3359 11.7144 12.2152 13.9365 11.5353 13.9365C11.1953 13.9365 10.7546 13.6295 10.4524 13.4577C8.16073 12.2177 6.57419 10.6708 5.30244 8.43645C5.12616 8.14181 4.81137 7.71212 4.81137 7.38065C4.81137 6.7177 7.09044 5.62507 7.09044 4.87619C7.09044 4.49561 6.71269 4.10275 6.51123 3.78355C6.09571 3.09605 5.70537 2.384 5.30244 1.68422C5.17652 1.43869 4.89951 0.837124 4.63508 0.751186C4.54694 0.714355 4.4588 0.714355 4.37066 0.714355C3.91736 0.714355 3.03595 0.910785 2.62043 1.09494C2.00344 1.35275 1.60051 2.04025 1.28573 2.5927C0.882795 3.31703 0.643555 4.05364 0.643555 4.87619C0.643555 6.01793 1.12203 7.04918 1.51237 8.0927C1.78939 8.84159 2.12936 9.56592 2.55747 10.2411C3.87959 12.3282 6.46086 14.8449 8.60143 16.134C9.29397 16.5514 10.0369 16.8829 10.805 17.153C11.8752 17.5336 12.9329 18.0001 14.1039 18.0001C14.9476 18.0001 15.7031 17.7668 16.446 17.374C17.0126 17.067 17.7177 16.6742 17.9822 16.0726C18.171 15.6675 18.3725 14.8081 18.3725 14.3661Z" />
    </symbol>

    <!-- Mail -->
    <symbol viewBox="0 0 22 18" id="icon-mail">
        <path d="M20.4286 15.6071C20.4286 15.8158 20.2444 15.9999 20.0357 15.9999H1.96429C1.75558 15.9999 1.57143 15.8158 1.57143 15.6071V6.1785C1.82924 6.47314 2.11161 6.74323 2.41853 6.98877C4.17411 8.33922 5.94196 9.71422 7.64844 11.1383C8.5692 11.9118 9.71094 12.8571 10.9877 12.8571H11H11.0123C12.2891 12.8571 13.4308 11.9118 14.3516 11.1383C16.058 9.71422 17.8259 8.33922 19.5815 6.98877C19.8884 6.74323 20.1708 6.47314 20.4286 6.1785V15.6071ZM20.4286 2.70417C20.4286 3.7477 19.4219 5.11042 18.6239 5.73654C16.9788 7.0256 15.3337 8.32694 13.7009 9.62828C13.0502 10.1562 11.8717 11.2856 11.0123 11.2856H11H10.9877C10.1283 11.2856 8.94978 10.1562 8.29911 9.62828C6.6663 8.32694 5.02121 7.0256 3.37612 5.73654C2.27121 4.86488 1.57143 3.64948 1.57143 2.24993C1.57143 2.04123 1.75558 1.85707 1.96429 1.85707H20.0357C20.5022 1.85707 20.4286 2.39725 20.4286 2.70417ZM22 2.24993C22 1.16957 21.1161 0.285645 20.0357 0.285645H1.96429C0.883929 0.285645 0 1.16957 0 2.24993V15.6071C0 16.6874 0.883929 17.5714 1.96429 17.5714H20.0357C21.1161 17.5714 22 16.6874 22 15.6071V2.24993Z" />
    </symbol>

    <!-- Иконка крестик -->
    <symbol fill-rule="evenodd" clip-rule="evenodd" viewBox="0 0 24 24" id="icon-close">
        <path d="M12 11.293l10.293-10.293.707.707-10.293 10.293 10.293 10.293-.707.707-10.293-10.293-10.293 10.293-.707-.707 10.293-10.293-10.293-10.293.707-.707 10.293 10.293z"/>
    </symbol>
</svg>