<svg width="20" height="20" viewBox="0 0 20 20" fill="none" xmlns="http://www.w3.org/2000/svg">
<path d="M17.0781 2.83594C15.3164 1.03125 12.9102 0 10.332 0C5.08984 0 0.792969 4.29688 0.792969 9.53906C0.792969 11.2578 1.26562 12.8906 2.08203 14.3086L0.75 19.25L5.77734 17.9609C7.19531 18.6914 8.74219 19.1211 10.332 19.1211C15.6172 19.1211 20 14.8242 20 9.58203C20 7.00391 18.8828 4.64062 17.0781 2.83594ZM10.332 17.4883C8.91406 17.4883 7.53906 17.1016 6.29297 16.3711L6.03516 16.1992L3.02734 17.0156L3.84375 14.0938L3.62891 13.793C2.85547 12.5039 2.42578 11.043 2.42578 9.53906C2.42578 5.19922 5.99219 1.63281 10.375 1.63281C12.4805 1.63281 14.457 2.44922 15.9609 3.95312C17.4648 5.45703 18.3672 7.43359 18.3672 9.58203C18.3672 13.9219 14.7148 17.4883 10.332 17.4883ZM14.7148 11.5586C14.457 11.4297 13.2969 10.8711 13.082 10.7852C12.8672 10.6992 12.6953 10.6562 12.5234 10.9141C12.3945 11.1289 11.9219 11.6875 11.793 11.8594C11.6211 11.9883 11.4922 12.0312 11.2773 11.9023C9.85938 11.2148 8.95703 10.6562 8.01172 9.06641C7.75391 8.63672 8.26953 8.67969 8.69922 7.77734C8.78516 7.60547 8.74219 7.47656 8.69922 7.34766C8.65625 7.21875 8.14062 6.05859 7.96875 5.58594C7.75391 5.11328 7.58203 5.15625 7.41016 5.15625C7.28125 5.15625 7.10938 5.15625 6.98047 5.15625C6.80859 5.15625 6.55078 5.19922 6.33594 5.45703C6.12109 5.71484 5.51953 6.27344 5.51953 7.43359C5.51953 8.63672 6.33594 9.75391 6.46484 9.92578C6.59375 10.0547 8.14062 12.4609 10.5469 13.4922C12.0508 14.1797 12.6523 14.2227 13.4258 14.0938C13.8555 14.0508 14.8008 13.5352 15.0156 12.9766C15.2305 12.418 15.2305 11.9453 15.1445 11.8594C15.1016 11.7305 14.9297 11.6875 14.7148 11.5586Z" fill="url(#paint0_linear_519_4)"/>
<defs>
<linearGradient id="paint0_linear_519_4" x1="0.75" y1="9.6273" x2="19.9979" y2="9.6273" gradientUnits="userSpaceOnUse">
<stop offset="0.651042" stop-color="#EC6517"/>
<stop offset="1" stop-color="#F18522"/>
</linearGradient>
</defs>
</svg>
